# xmcd
#
# Track frame offsets:
# 150
# 4541
# 22672
# 33766
# 43719
# 64087
# 77586
# 97086
# 114827
# 119355
# 132186
# 150750
# 169414
# 183685
# 203718
# 221343
# 244895
# 253641
# 268784
# 282744
# 296369
# 319754
#
# Disc length: 4522 seconds
#
#
# Revision: 0
# Processed by: cddbd v1.5.2PL0 Copyright (c) Steve Scherf et al.
# Submitted via: FreeRIP 2.945 
#
DISCID=2d11a816
DTITLE=Eminem - The Re-Up
DYEAR=2006
DGENRE=Rap
TTITLE0=Shady Narcotics
TTITLE1=We're Back
TTITLE2=Pistol Pistol (Remix)
TTITLE3=Murder
TTITLE4=Everything Is Shady
TTITLE5=The Re-Up
TTITLE6=You Don't Know
TTITLE7=Jimmy Crack Corn
TTITLE8=Trapped
TTITLE9=Whatever You Want
TTITLE10=Takin' All That
TTITLE11=By My Side
TTITLE12=We Ride for Shady
TTITLE13=There He Is
TTITLE14=Tryin' Ta Win
TTITLE15=Smack That (Remix)
TTITLE16=Public Enemy #1
TTITLE17=Get Low
TTITLE18=Ski Mask Way (Eminem Remix)
TTITLE19=Shake That (Remix)
TTITLE20=Cry Now (Shady Remix)
TTITLE21=No Apologies
EXTD=
EXTT0=
EXTT1=
EXTT2=
EXTT3=
EXTT4=
EXTT5=
EXTT6=
EXTT7=
EXTT8=
EXTT9=
EXTT10=
EXTT11=
EXTT12=
EXTT13=
EXTT14=
EXTT15=
EXTT16=
EXTT17=
EXTT18=
EXTT19=
EXTT20=
EXTT21=
PLAYORDER=
